<?xml version="1.0" encoding="utf-8"?>
<!-- Generator: Adobe Illustrator 16.0.0, SVG Export Plug-In . SVG Version: 6.00 Build 0)  -->
<!DOCTYPE svg PUBLIC "-//W3C//DTD SVG 1.1//EN" "http://www.w3.org/Graphics/SVG/1.1/DTD/svg11.dtd">
<svg version="1.1" id="Layer_1" xmlns="http://www.w3.org/2000/svg" xmlns:xlink="http://www.w3.org/1999/xlink" x="0px" y="0px"
	 width="500px" height="500px" viewBox="0 0 500 500" enable-background="new 0 0 500 500" xml:space="preserve">
<g>
	<path fill-rule="evenodd" clip-rule="evenodd" fill="#FDCC53" d="M229.494,223.564c-0.094,9.319-1.195,19.334,1.594,21.592
		c2.781,2.253,19.975,7.94,19.811,10.713c-0.141,2.757-7.585-1.535-11.491-3.253c2.148,1.972,12.241,9.608,8.601,11.756
		c-4.96,2.925-10.905-8.265-14.303-11.397c0.633,2.972,4.241,13.647-0.906,12.26c-6.531-1.773-0.203-11.28-6.891-15.245
		c-4.351-2.582-7.671-3.933-9.709-4.741c-2.031-0.805,0.78-1.902,4.515-2.332c3.766-0.441,3.664-0.625,2.25-8.69
		c-1.43-8.081-1.719-14.042-2.891-17.717C218.925,212.851,229.541,215.112,229.494,223.564L229.494,223.564z"/>
	<path fill-rule="evenodd" clip-rule="evenodd" fill="#FDCC53" d="M259.257,219.913c-0.078,9.312-1.203,19.346,1.602,21.599
		c2.78,2.266,19.966,7.933,19.826,10.698c-0.164,2.773-7.609-1.535-11.515-3.238c2.172,1.949,12.248,9.592,8.616,11.752
		c-4.969,2.929-10.921-8.276-14.312-11.393c0.641,2.968,4.227,13.631-0.897,12.26c-6.547-1.773-0.195-11.284-6.891-15.245
		c-4.366-2.589-7.679-3.941-9.71-4.746c-2.047-0.808,0.766-1.898,4.523-2.335c3.742-0.438,3.648-0.605,2.242-8.69
		c-1.453-8.081-1.734-14.042-2.906-17.709C248.688,209.207,259.319,211.472,259.257,219.913L259.257,219.913z"/>
	<path fill-rule="evenodd" clip-rule="evenodd" fill="#85C441" d="M362.237,67.219c25.271,76.983,13.101,161.919-109.37,160.42
		c-4.922,0.48-58.658-1-58.682-4.496c0-1.402,10.515-6.292,14.35-8.382c10.397-5.616,35.527-8.843,35.855-13.03
		C249.039,144.28,256.124,62.329,362.237,67.219L362.237,67.219z"/>
	<g>
		<defs>
			<path id="SVGID_1_" d="M362.237,67.219c25.271,76.983,13.101,161.919-109.37,160.42c-4.922,0.48-58.658-1-58.682-4.496
				c0-1.402,10.515-6.292,14.35-8.382c10.397-5.616,35.527-8.843,35.855-13.03C249.039,144.28,256.124,62.329,362.237,67.219
				L362.237,67.219z"/>
		</defs>
		<clipPath id="SVGID_2_">
			<use xlink:href="#SVGID_1_"  overflow="visible"/>
		</clipPath>
		<path clip-path="url(#SVGID_2_)" fill-rule="evenodd" clip-rule="evenodd" fill="#FFFFFF" d="M246.945,146.28
			c24.029-13.647,40.848-25.606,48.854-35.516c-0.313-12.311,4.296-18.568,13.029-19.721c9.218,0.16,7.694,11.198,22.404,11.366
			c9.616,0.555,13.068,6.39,6.351,17.709c-1.18,1.878-2.055,3.679-1.352,6.022c8.319,6.722,2.633,13.171-14.357,19.393
			c-1.93,0.879-9.421,0.59-11.616,3.582c6.085-0.762,5.352,5.222,0.68,15.842c-0.555-5.257-1.719-10.276-3.905-14.928
			c-2.922,10.62-7.063,14.077-12.663,9.233c14.482,44.312-12.616,64.774-50.206,77.983l-54.196-13.092L246.945,146.28z"/>
		<path clip-path="url(#SVGID_2_)" fill-rule="evenodd" clip-rule="evenodd" fill="#B12B2F" d="M314.243,98.594
			c-5.094-5.792-13.054-2.773-13.343,10.975c2.352-0.656,9.78-1.816,14.116,0.16c11.1,5.898,14.146,21.482,5.351,33.868
			c12.593-4.109,16.482-9.101,12.374-14.893c-2.344-2.563-2.477-5.792,0.625-10.042c5.538-7.616,2.343-11.514-6.734-12.854
			C321.156,106.648,316.781,104.867,314.243,98.594L314.243,98.594z"/>
		<path clip-path="url(#SVGID_2_)" fill-rule="evenodd" clip-rule="evenodd" fill="#B12B2F" d="M297.378,147.616
			c-2.836-3.398-3.18-8.874-1.008-16.475c2.085,8.769,4.022,15.186,8.882,16.686c0.672,5.8-1.227,8.487-5.523,10.725
			C292.987,160.544,298.378,150.838,297.378,147.616L297.378,147.616z"/>
		<path clip-path="url(#SVGID_2_)" fill-rule="evenodd" clip-rule="evenodd" fill="#B12B2F" d="M309.517,135.504
			c1.906,0.816,4.141-0.078,4.945-1.992c0.828-1.93-0.063-4.14-1.984-4.976c-1.938-0.809-4.148,0.09-4.976,2
			C306.689,132.461,307.587,134.688,309.517,135.504L309.517,135.504z"/>
		<path clip-path="url(#SVGID_2_)" fill-rule="evenodd" clip-rule="evenodd" fill="#FFFFFF" d="M311.36,135.98
			c0.898,0.367,1.922-0.047,2.297-0.922c0.375-0.886-0.039-1.914-0.922-2.3c-0.898-0.367-1.914,0.035-2.297,0.922
			C310.071,134.567,310.478,135.594,311.36,135.98L311.36,135.98z"/>
	</g>
	<path fill-rule="evenodd" clip-rule="evenodd" fill="#CBDB2A" d="M225.861,213.816C156.65,230.357,120.584,167.02,121.928,91.563
		c12.999,14.409,65.556,10.769,99.372,19.271C276.606,131.434,278.56,199.458,225.861,213.816L225.861,213.816z"/>
	<path fill="#FFFFFF" d="M168.743,134.766c-19.357,9.209-25.036,37.89-12.671,63.918c6.055,12.698,15.429,22.853,26.45,28.603
		c10.772,5.624,21.818,6.308,31.099,1.902c9.265-4.421,15.732-13.417,18.162-25.353c2.492-12.163,0.555-25.845-5.492-38.546
		c-11.318-23.798-33.832-37.289-52.416-32.399C172.126,133.356,170.407,133.977,168.743,134.766L168.743,134.766z M201.872,230.287
		L201.872,230.287c-20.123-0.078-34.699-17.982-34.699-17.982c29.271,19.951,58.135,2.73,58.135,2.73
		C219.495,229.236,201.872,230.287,201.872,230.287L201.872,230.287z"/>
	<path fill="#CBDB2A" d="M157.775,191.549c0,0,5.789,22.365,24.052,30.833c0,0,16.46,6.405,27.646-4.101
		C209.473,218.28,176.07,221.905,157.775,191.549L157.775,191.549z"/>
	<path fill="#85C441" d="M197.662,142.015c8.819,5.171,13.795,13.077,11.092,17.693c-2.679,4.609-12.029,4.171-20.841-0.992
		c-8.819-5.14-13.78-13.065-11.085-17.674C179.508,136.418,188.851,136.867,197.662,142.015L197.662,142.015z"/>
	<path fill="#00A651" d="M88.525,312.891c-5.413,0-10.163-0.887-14.225-2.668c-4.07-1.765-7.203-4.3-9.421-7.593
		c-2.242-3.308-3.344-7.108-3.344-11.443v-1.344c0-0.445,0.117-0.797,0.383-1.063c0.258-0.254,0.617-0.387,1.07-0.387h14.998
		c0.438,0,0.797,0.133,1.063,0.387c0.258,0.266,0.383,0.617,0.383,1.063v0.578c0,1.808,0.953,3.417,2.859,4.792
		c1.891,1.398,4.429,2.082,7.601,2.082c2.391,0,4.085-0.512,5.116-1.492c1.047-1.012,1.547-2.117,1.547-3.344
		c0-1.433-0.633-2.483-1.922-3.194c-1.297-0.711-3.647-1.582-7.062-2.617l-2.82-0.781c-6.39-1.929-11.732-4.511-16.061-7.741
		c-4.312-3.238-6.476-7.905-6.476-14.03c0-4.074,1.094-7.671,3.281-10.803c2.187-3.137,5.21-5.539,9.062-7.207
		c3.835-1.687,8.132-2.527,12.904-2.527c5.039,0,9.608,0.938,13.694,2.816c4.101,1.852,7.335,4.511,9.687,7.933
		c2.358,3.414,3.522,7.328,3.522,11.71v0.875c0,0.449-0.117,0.808-0.367,1.07c-0.273,0.246-0.625,0.379-1.07,0.379H97.907
		c-0.438,0-0.805-0.133-1.047-0.379c-0.266-0.262-0.398-0.621-0.398-1.07v-0.086c0-1.949-0.867-3.703-2.609-5.292
		c-1.741-1.578-4.093-2.352-7.069-2.352c-2.055,0-3.694,0.395-4.89,1.246c-1.188,0.832-1.781,1.992-1.781,3.492
		c0,1.16,0.438,2.133,1.305,2.934c0.875,0.824,2.227,1.597,4.022,2.332c1.789,0.746,4.578,1.711,8.312,2.863
		c0.516,0.184,2.805,0.887,6.836,2.07c4.038,1.203,7.397,3.371,10.108,6.503c2.71,3.132,4.062,6.917,4.062,11.373
		c0,4.336-1.094,8.059-3.289,11.183c-2.194,3.125-5.257,5.539-9.202,7.214C98.337,312.039,93.751,312.891,88.525,312.891
		L88.525,312.891z M166.446,312.109c-0.914,0-1.469-0.422-1.656-1.258l-2.132-7.546c-0.117-0.273-0.289-0.395-0.469-0.395H141.66
		c-0.195,0-0.344,0.121-0.484,0.395l-2.141,7.546c-0.172,0.836-0.719,1.258-1.625,1.258H120.85c-1.147,0-1.577-0.527-1.241-1.645
		l20.411-64.958c0.242-0.792,0.805-1.167,1.641-1.167h20.529c0.82,0,1.375,0.375,1.633,1.167l20.427,64.958
		c0.063,0.125,0.102,0.328,0.102,0.59c0,0.695-0.453,1.055-1.367,1.055H166.446z M145.441,288.394
		c-0.07,0.387,0.055,0.582,0.375,0.582h12.115c0.383,0,0.5-0.195,0.383-0.582l-6.202-21.701c-0.063-0.188-0.156-0.289-0.289-0.289
		c-0.125,0-0.227,0.102-0.289,0.289L145.441,288.394z M224.511,245.785c0-0.437,0.117-0.796,0.375-1.07
		c0.281-0.246,0.625-0.375,1.085-0.375h15.272c0.453,0,0.805,0.129,1.078,0.375c0.242,0.273,0.391,0.633,0.391,1.07v64.875
		c0,0.449-0.148,0.809-0.391,1.063c-0.273,0.262-0.625,0.387-1.078,0.387h-15.272c-0.46,0-0.804-0.125-1.085-0.387
		c-0.258-0.254-0.375-0.613-0.375-1.063v-24.591c0-0.332-0.172-0.492-0.484-0.492h-15.101c-0.313,0-0.477,0.16-0.477,0.492v24.591
		c0,0.449-0.133,0.809-0.405,1.063c-0.25,0.262-0.594,0.387-1.047,0.387h-15.296c-0.445,0-0.805-0.125-1.07-0.387
		c-0.257-0.254-0.374-0.613-0.374-1.063v-64.875c0-0.437,0.117-0.796,0.374-1.07c0.266-0.246,0.625-0.375,1.07-0.375h15.296
		c0.453,0,0.797,0.129,1.047,0.375c0.272,0.273,0.405,0.633,0.405,1.07v23.732c0,0.324,0.164,0.484,0.477,0.484h15.101
		c0.313,0,0.484-0.16,0.484-0.484V245.785z M294.667,312.109c-0.891,0-1.453-0.422-1.641-1.258l-2.141-7.546
		c-0.109-0.273-0.289-0.395-0.461-0.395h-20.536c-0.18,0-0.352,0.121-0.469,0.395l-2.141,7.546
		c-0.195,0.836-0.742,1.258-1.641,1.258h-16.537c-1.164,0-1.594-0.527-1.273-1.645l20.42-64.958
		c0.258-0.792,0.813-1.167,1.641-1.167h20.536c0.828,0,1.383,0.375,1.633,1.167l20.42,64.958c0.063,0.125,0.094,0.328,0.094,0.59
		c0,0.695-0.438,1.055-1.352,1.055H294.667z M273.669,288.394c-0.07,0.387,0.063,0.582,0.406,0.582h12.085
		c0.375,0,0.508-0.195,0.375-0.582l-6.187-21.701c-0.07-0.188-0.156-0.289-0.297-0.289c-0.125,0-0.219,0.102-0.281,0.289
		L273.669,288.394z M341.709,312.891c-5.227,0-9.772-0.957-13.655-2.906c-3.851-1.948-6.866-4.644-8.991-8.136
		c-2.125-3.483-3.187-7.558-3.187-12.197v-5.137c0-0.457,0.133-0.804,0.366-1.062c0.281-0.262,0.625-0.387,1.078-0.387h15.28
		c0.469,0,0.82,0.125,1.078,0.387c0.257,0.258,0.382,0.605,0.382,1.062v5.039c0,2.323,0.68,4.194,2.031,5.616
		c1.352,1.43,3.234,2.125,5.617,2.125c2.319,0,4.233-0.695,5.694-2.125c1.508-1.422,2.234-3.293,2.234-5.616v-43.769
		c0-0.437,0.133-0.796,0.375-1.07c0.273-0.246,0.633-0.375,1.07-0.375h15.201c0.453,0,0.805,0.129,1.078,0.375
		c0.25,0.273,0.383,0.633,0.383,1.07v43.867c0,4.581-1.102,8.636-3.289,12.143c-2.219,3.531-5.272,6.242-9.21,8.19
		C351.325,311.934,346.802,312.891,341.709,312.891L341.709,312.891z M420.583,312.109c-0.906,0-1.453-0.422-1.641-1.258
		l-2.141-7.546c-0.125-0.273-0.281-0.395-0.469-0.395h-20.528c-0.188,0-0.359,0.121-0.469,0.395l-2.141,7.546
		c-0.195,0.836-0.742,1.258-1.641,1.258h-16.561c-1.156,0-1.578-0.527-1.25-1.645l20.412-64.958c0.258-0.792,0.82-1.167,1.648-1.167
		h20.528c0.828,0,1.383,0.375,1.641,1.167l20.42,64.958c0.047,0.125,0.094,0.328,0.094,0.59c0,0.695-0.469,1.055-1.359,1.055
		H420.583z M399.585,288.394c-0.07,0.387,0.055,0.582,0.383,0.582h12.101c0.383,0,0.508-0.195,0.383-0.582l-6.203-21.701
		c-0.055-0.188-0.156-0.289-0.281-0.289c-0.141,0-0.227,0.102-0.297,0.289L399.585,288.394z"/>
	<g>
		<path fill="#404041" d="M86.791,329.021c0.156-0.16,0.344-0.23,0.563-0.23h6.077c0.234,0,0.414,0.07,0.57,0.23
			c0.156,0.156,0.234,0.34,0.234,0.57v44.706c0,0.219-0.078,0.402-0.234,0.551c-0.156,0.16-0.336,0.238-0.57,0.238h-6.077
			c-0.219,0-0.406-0.078-0.563-0.238c-0.156-0.148-0.227-0.332-0.227-0.551v-18.924c0-0.219-0.117-0.332-0.336-0.332H69.371
			c-0.219,0-0.336,0.113-0.336,0.332v18.924c0,0.219-0.078,0.402-0.227,0.551c-0.156,0.16-0.352,0.238-0.563,0.238h-6.085
			c-0.227,0-0.406-0.078-0.555-0.238c-0.172-0.148-0.242-0.332-0.242-0.551v-44.706c0-0.23,0.07-0.414,0.242-0.57
			c0.148-0.16,0.328-0.23,0.555-0.23h6.085c0.211,0,0.406,0.07,0.563,0.23c0.148,0.156,0.227,0.34,0.227,0.57v18.518
			c0,0.211,0.117,0.324,0.336,0.324h16.857c0.219,0,0.336-0.113,0.336-0.324v-18.518C86.564,329.361,86.635,329.178,86.791,329.021z
			"/>
		<path fill="#404041" d="M131.528,358.085l-0.055,2.055c0,0.527-0.266,0.789-0.805,0.789h-20.692c-0.227,0-0.336,0.117-0.336,0.336
			c0.133,1.456,0.336,2.448,0.602,2.976c1.062,3.168,3.632,4.781,7.733,4.824c2.991,0,5.374-1.234,7.14-3.711
			c0.18-0.254,0.398-0.395,0.656-0.395c0.188,0,0.336,0.078,0.469,0.199l4.101,3.383c0.398,0.305,0.461,0.656,0.195,1.051
			c-1.367,1.948-3.179,3.44-5.452,4.495c-2.266,1.063-4.805,1.586-7.577,1.586c-3.43,0-6.352-0.762-8.757-2.309
			c-2.406-1.543-4.164-3.702-5.258-6.476c-1.016-2.387-1.515-5.694-1.515-9.925c0-2.555,0.257-4.624,0.788-6.214
			c0.883-3.09,2.539-5.52,4.992-7.312c2.438-1.781,5.39-2.676,8.835-2.676c8.671,0,13.568,4.546,14.678,13.627
			C131.442,355.487,131.528,356.718,131.528,358.085z M112.515,348.598c-1.07,0.816-1.835,1.949-2.272,3.406
			c-0.266,0.758-0.438,1.722-0.539,2.913c-0.086,0.219,0,0.324,0.273,0.324h13.42c0.219,0,0.336-0.105,0.336-0.324
			c-0.094-1.105-0.234-1.948-0.398-2.519c-0.391-1.586-1.188-2.816-2.352-3.703c-1.164-0.875-2.632-1.324-4.39-1.324
			C114.952,347.371,113.601,347.785,112.515,348.598z"/>
		<path fill="#404041" d="M157.986,341.755c0.336,0.176,0.477,0.508,0.391,0.992l-1.125,5.948c-0.039,0.535-0.352,0.684-0.93,0.465
			c-0.656-0.219-1.429-0.332-2.304-0.332c-0.578,0-1.023,0.027-1.328,0.07c-1.852,0.086-3.398,0.738-4.625,1.949
			c-1.234,1.211-1.858,2.788-1.858,4.729v18.721c0,0.219-0.07,0.402-0.227,0.551c-0.148,0.16-0.344,0.238-0.563,0.238h-6.086
			c-0.219,0-0.414-0.078-0.563-0.238c-0.156-0.148-0.234-0.332-0.234-0.551v-32.211c0-0.219,0.078-0.41,0.234-0.563
			c0.148-0.156,0.344-0.234,0.563-0.234h6.086c0.219,0,0.414,0.078,0.563,0.234c0.156,0.152,0.227,0.344,0.227,0.563v2.968
			c0,0.184,0.031,0.281,0.101,0.305c0.063,0.02,0.141-0.043,0.234-0.176c1.852-2.851,4.43-4.288,7.734-4.288
			C155.689,340.896,156.924,341.177,157.986,341.755z"/>
		<path fill="#404041" d="M193.037,358.085c0,3.137-0.422,5.89-1.258,8.269c-0.977,2.914-2.546,5.187-4.702,6.812
			c-2.156,1.633-4.805,2.449-7.929,2.449c-3.086,0-5.625-1.168-7.608-3.504c-0.086-0.133-0.18-0.176-0.258-0.133
			c-0.102,0.035-0.133,0.133-0.133,0.266v2.055c0,0.219-0.086,0.402-0.242,0.551c-0.156,0.16-0.336,0.238-0.555,0.238h-6.086
			c-0.219,0-0.413-0.078-0.562-0.238c-0.156-0.148-0.227-0.332-0.227-0.551v-44.706c0-0.23,0.07-0.414,0.227-0.57
			c0.148-0.16,0.343-0.23,0.562-0.23h6.086c0.219,0,0.398,0.07,0.555,0.23c0.156,0.156,0.242,0.34,0.242,0.57v14.347
			c0,0.133,0.031,0.211,0.133,0.266c0.078,0.043,0.172,0.027,0.258-0.07c1.897-2.246,4.405-3.371,7.53-3.371
			c3.272,0,5.968,0.816,8.108,2.449c2.133,1.632,3.718,3.905,4.733,6.808C192.654,352.488,193.037,355.183,193.037,358.085z
			 M185.163,358.218c0-3.441-0.664-6.124-1.984-8.065c-1.195-1.852-2.96-2.781-5.288-2.781c-2.164,0-3.813,0.973-4.961,2.914
			c-1.108,1.809-1.647,4.433-1.647,7.87c0,3.398,0.5,5.96,1.515,7.663c1.141,2.125,2.859,3.188,5.164,3.188
			c1.227,0,2.328-0.281,3.305-0.836c0.968-0.543,1.741-1.332,2.312-2.352C184.624,363.975,185.163,361.44,185.163,358.218z"/>
		<path fill="#404041" d="M220.612,342.212c2.109,0.973,3.742,2.308,4.898,3.999c1.14,1.703,1.71,3.637,1.71,5.793v22.294
			c0,0.219-0.078,0.402-0.234,0.551c-0.156,0.16-0.336,0.238-0.555,0.238h-6.093c-0.219,0-0.406-0.078-0.555-0.238
			c-0.156-0.148-0.234-0.332-0.234-0.551v-2.125c0-0.133-0.047-0.211-0.133-0.238c-0.086-0.008-0.18,0.02-0.273,0.105
			c-2.148,2.387-5.28,3.574-9.382,3.574c-3.304,0-6.03-0.836-8.171-2.52c-2.141-1.668-3.202-4.159-3.202-7.468
			c0-3.441,1.202-6.12,3.608-8.03c2.406-1.914,5.781-2.879,10.147-2.879h7.077c0.211,0,0.328-0.105,0.328-0.328v-1.593
			c0-1.723-0.508-3.055-1.523-4.004s-2.53-1.422-4.562-1.422c-1.672,0-3.039,0.309-4.063,0.895
			c-1.047,0.598-1.694,1.422-1.944,2.484c-0.141,0.527-0.453,0.746-0.93,0.66l-6.422-0.793c-0.219-0.043-0.414-0.121-0.563-0.227
			c-0.156-0.113-0.211-0.266-0.164-0.438c0.352-2.688,1.797-4.898,4.328-6.608c2.539-1.723,5.718-2.582,9.554-2.582
			C216.051,340.763,218.495,341.247,220.612,342.212z M217.229,367.803c1.547-1.141,2.32-2.59,2.32-4.355v-3.104
			c0-0.23-0.117-0.332-0.328-0.332h-5.554c-2.344,0-4.188,0.438-5.531,1.316c-1.343,0.886-2.007,2.14-2.007,3.772
			c0,1.414,0.508,2.5,1.555,3.273c1.03,0.773,2.366,1.156,3.999,1.156C213.848,369.529,215.684,368.959,217.229,367.803z"/>
		<path fill="#404041" d="M235.126,374.849c-0.156-0.148-0.234-0.332-0.234-0.551v-44.706c0-0.23,0.078-0.414,0.234-0.57
			c0.148-0.16,0.344-0.23,0.563-0.23h6.078c0.227,0,0.406,0.07,0.563,0.23c0.164,0.156,0.234,0.34,0.234,0.57v44.706
			c0,0.219-0.07,0.402-0.234,0.551c-0.156,0.16-0.336,0.238-0.563,0.238h-6.078C235.47,375.087,235.274,375.009,235.126,374.849z"/>
		<path fill="#404041" d="M295.706,335.174c-0.156,0.156-0.352,0.234-0.57,0.234h-22.475c-0.227,0-0.336,0.105-0.336,0.324v12.377
			c0,0.211,0.109,0.324,0.336,0.324h15.132c0.227,0,0.406,0.078,0.57,0.227c0.148,0.16,0.234,0.344,0.234,0.57v5.03
			c0,0.211-0.086,0.402-0.234,0.551c-0.164,0.16-0.344,0.23-0.57,0.23h-15.132c-0.227,0-0.336,0.113-0.336,0.332v18.924
			c0,0.219-0.078,0.402-0.233,0.551c-0.148,0.16-0.344,0.238-0.555,0.238h-6.094c-0.219,0-0.406-0.078-0.563-0.238
			c-0.156-0.148-0.234-0.332-0.234-0.551v-44.706c0-0.23,0.078-0.414,0.234-0.57c0.156-0.16,0.344-0.23,0.563-0.23h29.692
			c0.219,0,0.414,0.07,0.57,0.23c0.141,0.156,0.227,0.34,0.227,0.57v5.027C295.933,334.83,295.847,335.021,295.706,335.174z"/>
		<path fill="#404041" d="M318.539,342.212c2.125,0.973,3.758,2.308,4.898,3.999c1.141,1.703,1.719,3.637,1.719,5.793v22.294
			c0,0.219-0.078,0.402-0.227,0.551c-0.156,0.16-0.352,0.238-0.563,0.238h-6.086c-0.234,0-0.414-0.078-0.563-0.238
			c-0.156-0.148-0.242-0.332-0.242-0.551v-2.125c0-0.133-0.031-0.211-0.117-0.238c-0.102-0.008-0.188,0.02-0.273,0.105
			c-2.147,2.387-5.28,3.574-9.382,3.574c-3.312,0-6.03-0.836-8.171-2.52c-2.14-1.668-3.202-4.159-3.202-7.468
			c0-3.441,1.195-6.12,3.608-8.03c2.391-1.914,5.781-2.879,10.132-2.879h7.085c0.227,0,0.32-0.105,0.32-0.328v-1.593
			c0-1.723-0.492-3.055-1.507-4.004c-1.023-0.949-2.539-1.422-4.57-1.422c-1.672,0-3.031,0.309-4.054,0.895
			c-1.039,0.598-1.695,1.422-1.961,2.484c-0.133,0.527-0.445,0.746-0.922,0.66l-6.421-0.793c-0.219-0.043-0.406-0.121-0.563-0.227
			c-0.148-0.113-0.203-0.266-0.156-0.438c0.352-2.688,1.788-4.898,4.319-6.608c2.539-1.723,5.727-2.582,9.562-2.582
			C313.985,340.763,316.438,341.247,318.539,342.212z M315.173,367.803c1.546-1.141,2.304-2.59,2.304-4.355v-3.104
			c0-0.23-0.094-0.332-0.32-0.332h-5.554c-2.336,0-4.171,0.438-5.522,1.316c-1.344,0.886-2.016,2.14-2.016,3.772
			c0,1.414,0.516,2.5,1.563,3.273c1.023,0.773,2.366,1.156,3.991,1.156C311.782,369.529,313.626,368.959,315.173,367.803z"/>
		<path fill="#404041" d="M352.277,341.755c0.344,0.176,0.477,0.508,0.383,0.992l-1.117,5.948c-0.047,0.535-0.351,0.684-0.921,0.465
			c-0.664-0.219-1.43-0.332-2.313-0.332c-0.578,0-1.016,0.027-1.336,0.07c-1.852,0.086-3.383,0.738-4.616,1.949
			c-1.242,1.211-1.859,2.788-1.859,4.729v18.721c0,0.219-0.07,0.402-0.227,0.551c-0.156,0.16-0.344,0.238-0.563,0.238h-6.093
			c-0.203,0-0.398-0.078-0.547-0.238c-0.172-0.148-0.242-0.332-0.242-0.551v-32.211c0-0.219,0.07-0.41,0.242-0.563
			c0.148-0.156,0.344-0.234,0.547-0.234h6.093c0.219,0,0.406,0.078,0.563,0.234c0.156,0.152,0.227,0.344,0.227,0.563v2.968
			c0,0.184,0.039,0.281,0.109,0.305c0.055,0.02,0.141-0.043,0.227-0.176c1.852-2.851,4.429-4.288,7.741-4.288
			C349.981,340.896,351.216,341.177,352.277,341.755z"/>
		<path fill="#404041" d="M401.827,343.833c1.93,2.054,2.882,4.905,2.882,8.565v21.899c0,0.219-0.07,0.402-0.234,0.551
			c-0.155,0.16-0.327,0.238-0.554,0.238h-6.016c-0.219,0-0.414-0.078-0.57-0.238c-0.148-0.148-0.227-0.332-0.227-0.551v-20.311
			c0-2.026-0.539-3.64-1.616-4.827c-1.086-1.184-2.531-1.789-4.336-1.789s-3.281,0.605-4.43,1.789
			c-1.155,1.188-1.726,2.773-1.726,4.757v20.381c0,0.219-0.078,0.402-0.219,0.551c-0.164,0.16-0.352,0.238-0.57,0.238h-6.016
			c-0.218,0-0.413-0.078-0.562-0.238c-0.148-0.148-0.242-0.332-0.242-0.551v-20.311c0-2.026-0.539-3.64-1.633-4.827
			c-1.109-1.184-2.57-1.789-4.375-1.789c-1.68,0-3.054,0.492-4.132,1.457c-1.07,0.973-1.703,2.289-1.891,3.969v21.501
			c0,0.219-0.07,0.402-0.227,0.551c-0.148,0.16-0.344,0.238-0.57,0.238h-6.077c-0.227,0-0.406-0.078-0.555-0.238
			c-0.164-0.148-0.234-0.332-0.234-0.551v-32.211c0-0.219,0.07-0.41,0.234-0.563c0.148-0.156,0.328-0.234,0.555-0.234h6.077
			c0.227,0,0.422,0.078,0.57,0.234c0.156,0.152,0.227,0.344,0.227,0.563v2.176c0,0.141,0.047,0.223,0.133,0.265
			c0.094,0.051,0.172,0,0.273-0.124c0.961-1.246,2.156-2.156,3.608-2.746c1.422-0.605,3.016-0.895,4.789-0.895
			c2.164,0,4.054,0.438,5.687,1.324c1.625,0.879,2.891,2.16,3.773,3.827c0.133,0.184,0.281,0.184,0.453,0
			c0.969-1.765,2.32-3.062,4.038-3.897c1.711-0.84,3.633-1.254,5.75-1.254C397.265,340.763,399.921,341.782,401.827,343.833z"/>
		<path fill="#404041" d="M417.771,374.251c-2.086-0.805-3.711-1.93-4.851-3.366c-1.148-1.434-1.727-3.031-1.727-4.793v-0.598
			c0-0.219,0.078-0.402,0.227-0.563c0.156-0.156,0.352-0.238,0.57-0.238h5.819c0.219,0,0.406,0.082,0.563,0.238
			c0.148,0.16,0.234,0.344,0.234,0.563v0.133c0,1.105,0.602,2.063,1.813,2.879s2.741,1.219,4.593,1.219
			c1.773,0,3.195-0.359,4.305-1.09c1.102-0.727,1.648-1.641,1.648-2.738c0-1.016-0.445-1.781-1.352-2.289
			c-0.906-0.5-2.367-1.047-4.398-1.624l-2.516-0.789c-2.249-0.66-4.147-1.371-5.687-2.117c-1.547-0.754-2.844-1.762-3.897-3.07
			c-1.063-1.301-1.602-2.956-1.602-4.995c0-3.09,1.227-5.547,3.647-7.37c2.43-1.836,5.625-2.746,9.593-2.746
			c2.68,0,5.047,0.422,7.069,1.289c2.031,0.859,3.602,2.047,4.703,3.569c1.102,1.52,1.656,3.25,1.656,5.188
			c0,0.23-0.086,0.414-0.234,0.563c-0.156,0.16-0.352,0.238-0.57,0.238h-5.625c-0.219,0-0.398-0.078-0.555-0.238
			c-0.147-0.148-0.233-0.332-0.233-0.563c0-1.141-0.555-2.105-1.688-2.867c-1.117-0.781-2.648-1.16-4.594-1.16
			c-1.727,0-3.108,0.324-4.194,0.957c-1.086,0.641-1.617,1.527-1.617,2.676c0,1.055,0.516,1.863,1.547,2.414
			c1.039,0.547,2.772,1.159,5.194,1.815l1.453,0.406c2.336,0.699,4.304,1.422,5.882,2.141c1.594,0.727,2.93,1.746,4.039,3.047
			c1.102,1.297,1.648,2.983,1.648,5.062c0,3.125-1.227,5.582-3.703,7.374c-2.461,1.781-5.749,2.676-9.851,2.676
			C422.309,375.481,419.872,375.079,417.771,374.251z"/>
	</g>
	<g>
		<path fill="#404041" d="M102.594,406.182c-0.078,0.07-0.172,0.113-0.281,0.113H90.9c-0.109,0-0.172,0.051-0.172,0.168v6.257
			c0,0.113,0.063,0.164,0.172,0.164h7.671c0.102,0,0.203,0.035,0.281,0.117c0.078,0.078,0.117,0.184,0.117,0.289v2.534
			c0,0.125-0.039,0.211-0.117,0.289c-0.078,0.082-0.18,0.117-0.281,0.117H90.9c-0.109,0-0.172,0.059-0.172,0.164v6.461
			c0,0.113,0.063,0.168,0.172,0.168h11.412c0.109,0,0.203,0.043,0.281,0.113c0.078,0.086,0.117,0.176,0.117,0.289v2.546
			c0,0.113-0.039,0.199-0.117,0.281c-0.078,0.078-0.172,0.121-0.281,0.121H87.268c-0.117,0-0.211-0.043-0.289-0.121
			c-0.086-0.082-0.117-0.168-0.117-0.281v-22.626c0-0.105,0.031-0.191,0.117-0.281c0.078-0.07,0.172-0.121,0.289-0.121h15.045
			c0.109,0,0.203,0.051,0.281,0.121c0.078,0.09,0.117,0.176,0.117,0.281v2.547C102.711,406.006,102.672,406.104,102.594,406.182z"/>
		<path fill="#404041" d="M116.882,409.392c0.078-0.078,0.18-0.121,0.289-0.121h3.077c0.109,0,0.211,0.043,0.289,0.121
			s0.109,0.168,0.109,0.281v15.561c0,2.781-0.797,4.773-2.382,5.969c-1.602,1.191-3.688,1.788-6.281,1.788
			c-0.68,0-1.366-0.027-2.038-0.098c-0.25-0.016-0.359-0.163-0.359-0.429l0.094-2.746c0-0.246,0.148-0.367,0.469-0.367
			c0.648,0.059,1.226,0.105,1.733,0.105c1.68,0,2.906-0.336,3.703-0.992c0.789-0.66,1.18-1.773,1.18-3.328v-0.27
			c0-0.063-0.023-0.105-0.063-0.125c-0.047-0.008-0.086,0.008-0.133,0.063c-0.922,0.973-2.203,1.465-3.883,1.465
			c-1.445,0-2.78-0.359-3.983-1.105c-1.203-0.73-2.039-1.858-2.508-3.37c-0.289-1.055-0.43-2.406-0.43-4.055
			c0-1.859,0.188-3.272,0.531-4.249c0.445-1.359,1.211-2.445,2.313-3.262c1.086-0.809,2.366-1.223,3.851-1.223
			c1.758,0,3.133,0.52,4.109,1.547c0.047,0.051,0.086,0.086,0.133,0.051c0.039-0.016,0.063-0.051,0.063-0.121v-0.809
			C116.765,409.56,116.804,409.47,116.882,409.392z M116.718,419.598c0.039-0.387,0.047-1.027,0.047-1.895
			c0-0.844-0.008-1.457-0.047-1.824c-0.031-0.371-0.102-0.729-0.219-1.089c-0.18-0.727-0.539-1.316-1.078-1.766
			c-0.555-0.445-1.25-0.676-2.102-0.676c-0.797,0-1.477,0.23-2.047,0.676c-0.546,0.449-0.944,1.039-1.187,1.766
			c-0.273,0.632-0.406,1.604-0.406,2.948c0,1.387,0.102,2.352,0.336,2.906c0.219,0.719,0.617,1.309,1.218,1.754
			c0.586,0.465,1.297,0.695,2.125,0.695c0.867,0,1.578-0.223,2.102-0.668c0.539-0.449,0.898-1.027,1.07-1.738
			C116.632,420.355,116.687,419.984,116.718,419.598z"/>
		<path fill="#404041" d="M135.263,409.392c0.078-0.078,0.164-0.121,0.281-0.121h3.077c0.109,0,0.203,0.043,0.281,0.121
			c0.07,0.078,0.117,0.168,0.117,0.281v15.561c0,2.781-0.797,4.773-2.39,5.969c-1.594,1.191-3.688,1.788-6.273,1.788
			c-0.695,0-1.367-0.027-2.046-0.098c-0.242-0.016-0.367-0.163-0.367-0.429l0.102-2.746c0-0.246,0.164-0.367,0.469-0.367
			c0.647,0.059,1.226,0.105,1.733,0.105c1.68,0,2.914-0.336,3.695-0.992c0.805-0.66,1.195-1.773,1.195-3.328v-0.27
			c0-0.063-0.016-0.105-0.07-0.125c-0.039-0.008-0.086,0.008-0.133,0.063c-0.906,0.973-2.203,1.465-3.875,1.465
			c-1.453,0-2.78-0.359-3.983-1.105c-1.203-0.73-2.039-1.858-2.516-3.37c-0.289-1.055-0.43-2.406-0.43-4.055
			c0-1.859,0.18-3.272,0.539-4.249c0.445-1.359,1.211-2.445,2.305-3.262c1.094-0.809,2.382-1.223,3.843-1.223
			c1.766,0,3.148,0.52,4.117,1.547c0.047,0.051,0.094,0.086,0.133,0.051c0.055-0.016,0.07-0.051,0.07-0.121v-0.809
			C135.138,409.56,135.177,409.47,135.263,409.392z M135.099,419.598c0.023-0.387,0.039-1.027,0.039-1.895
			c0-0.844-0.016-1.457-0.039-1.824c-0.047-0.371-0.117-0.729-0.227-1.089c-0.18-0.727-0.539-1.316-1.086-1.766
			c-0.555-0.445-1.242-0.676-2.086-0.676c-0.813,0-1.492,0.23-2.047,0.676c-0.563,0.449-0.969,1.039-1.21,1.766
			c-0.266,0.632-0.398,1.604-0.398,2.948c0,1.387,0.109,2.352,0.336,2.906c0.218,0.719,0.624,1.309,1.218,1.754
			c0.602,0.465,1.305,0.695,2.125,0.695c0.867,0,1.57-0.223,2.109-0.668c0.531-0.449,0.906-1.027,1.07-1.738
			C134.997,420.355,135.052,419.984,135.099,419.598z"/>
		<path fill="#404041" d="M145.559,425.952c-1.055-0.41-1.883-0.984-2.461-1.702c-0.578-0.727-0.867-1.535-0.867-2.43v-0.309
			c0-0.105,0.047-0.191,0.117-0.27c0.078-0.082,0.172-0.125,0.289-0.125h2.938c0.117,0,0.211,0.043,0.289,0.125
			c0.078,0.078,0.117,0.164,0.117,0.27v0.07c0,0.563,0.304,1.047,0.929,1.457c0.602,0.414,1.375,0.625,2.313,0.625
			c0.898,0,1.617-0.188,2.18-0.555c0.555-0.367,0.836-0.832,0.836-1.387c0-0.516-0.227-0.902-0.688-1.156
			c-0.453-0.258-1.203-0.539-2.219-0.816l-1.281-0.406c-1.133-0.34-2.093-0.684-2.874-1.07c-0.781-0.379-1.438-0.895-1.969-1.563
			c-0.547-0.648-0.813-1.492-0.813-2.519c0-1.563,0.617-2.809,1.844-3.73c1.234-0.93,2.843-1.395,4.858-1.395
			c1.352,0,2.547,0.219,3.578,0.668c1.016,0.422,1.813,1.027,2.367,1.797c0.562,0.766,0.843,1.652,0.843,2.625
			c0,0.113-0.031,0.203-0.125,0.289c-0.07,0.082-0.172,0.117-0.281,0.117h-2.843c-0.109,0-0.211-0.035-0.289-0.117
			c-0.07-0.086-0.109-0.176-0.109-0.289c0-0.578-0.281-1.07-0.859-1.457c-0.563-0.387-1.336-0.586-2.32-0.586
			c-0.867,0-1.578,0.156-2.125,0.48s-0.819,0.781-0.819,1.363c0,0.543,0.257,0.938,0.796,1.218c0.508,0.281,1.383,0.586,2.617,0.93
			l0.734,0.191c1.188,0.363,2.164,0.723,2.984,1.09c0.797,0.367,1.477,0.879,2.038,1.547c0.555,0.656,0.836,1.5,0.836,2.551
			c0,1.582-0.617,2.827-1.874,3.729c-1.258,0.906-2.906,1.363-4.984,1.363C147.847,426.577,146.62,426.366,145.559,425.952z"/>
		<path fill="#404041" d="M172.063,428.937c-0.078-0.078-0.125-0.184-0.125-0.289v-27.313c0-0.105,0.047-0.199,0.125-0.277
			c0.078-0.082,0.164-0.117,0.281-0.117h3.077c0.117,0,0.211,0.035,0.281,0.117c0.078,0.078,0.125,0.172,0.125,0.277v27.313
			c0,0.105-0.047,0.211-0.125,0.289c-0.07,0.07-0.164,0.105-0.281,0.105h-3.077C172.228,429.042,172.142,429.007,172.063,428.937z"
			/>
		<path fill="#404041" d="M196.303,425.644c-1.273-0.656-2.25-1.569-2.953-2.745c-0.68-1.191-1.031-2.563-1.031-4.125v-8.269
			c0-1.559,0.352-2.93,1.031-4.104c0.703-1.184,1.68-2.098,2.953-2.746c1.273-0.652,2.742-0.977,4.413-0.977
			c1.648,0,3.117,0.316,4.391,0.941c1.258,0.621,2.242,1.508,2.938,2.641c0.694,1.14,1.046,2.456,1.046,3.948
			c0,0.113-0.047,0.211-0.125,0.289s-0.164,0.105-0.281,0.105l-3.077,0.176c-0.273,0-0.406-0.121-0.406-0.367
			c0-1.328-0.406-2.379-1.219-3.18c-0.82-0.804-1.906-1.21-3.266-1.21s-2.46,0.406-3.272,1.21c-0.836,0.801-1.242,1.852-1.242,3.18
			v8.538c0,1.289,0.406,2.328,1.242,3.133c0.813,0.816,1.913,1.211,3.272,1.211s2.445-0.395,3.266-1.184
			c0.813-0.789,1.219-1.844,1.219-3.16c0-0.254,0.133-0.379,0.406-0.379l3.077,0.141c0.117,0,0.203,0.027,0.281,0.098
			c0.078,0.063,0.125,0.148,0.125,0.23c0,1.516-0.352,2.859-1.046,4c-0.695,1.148-1.68,2.034-2.938,2.659
			c-1.273,0.633-2.742,0.938-4.391,0.938C199.045,426.636,197.576,426.304,196.303,425.644z"/>
		<path fill="#404041" d="M225.386,410.603c1.085,1.082,1.632,2.539,1.632,4.391v10.979c0,0.113-0.047,0.199-0.117,0.281
			c-0.078,0.078-0.172,0.121-0.289,0.121h-3.069c-0.117,0-0.211-0.043-0.297-0.121c-0.07-0.082-0.109-0.168-0.109-0.281v-10.175
			c0-1.022-0.289-1.858-0.875-2.499c-0.57-0.633-1.352-0.949-2.313-0.949c-0.953,0-1.727,0.309-2.32,0.941s-0.89,1.449-0.89,2.472
			v10.21c0,0.113-0.031,0.199-0.109,0.281c-0.078,0.078-0.18,0.121-0.281,0.121h-3.094c-0.109,0-0.188-0.043-0.273-0.121
			c-0.078-0.082-0.117-0.168-0.117-0.281v-22.626c0-0.105,0.039-0.191,0.117-0.281c0.086-0.07,0.164-0.121,0.273-0.121h3.094
			c0.102,0,0.203,0.051,0.281,0.121c0.078,0.09,0.109,0.176,0.109,0.281v7.397c0,0.07,0.031,0.113,0.07,0.133
			c0.047,0.027,0.078,0,0.102-0.063c0.921-1.203,2.296-1.809,4.147-1.809C222.862,409.005,224.308,409.532,225.386,410.603z"/>
		<path fill="#404041" d="M231.564,406.26c-0.445-0.449-0.672-1.02-0.672-1.703c0-0.691,0.227-1.266,0.672-1.711
			c0.445-0.449,1.016-0.668,1.711-0.668c0.688,0,1.258,0.219,1.71,0.668c0.43,0.445,0.664,1.02,0.664,1.711
			c0,0.684-0.234,1.254-0.664,1.703c-0.452,0.448-1.022,0.667-1.71,0.667C232.58,406.927,232.01,406.708,231.564,406.26z
			 M231.377,426.253c-0.078-0.082-0.109-0.168-0.109-0.281v-16.334c0-0.105,0.031-0.211,0.109-0.281
			c0.078-0.078,0.18-0.121,0.289-0.121h3.085c0.109,0,0.195,0.043,0.281,0.121c0.078,0.07,0.117,0.176,0.117,0.281v16.334
			c0,0.113-0.039,0.199-0.117,0.281c-0.086,0.078-0.172,0.121-0.281,0.121h-3.085C231.557,426.374,231.455,426.331,231.377,426.253z
			"/>
		<path fill="#404041" d="M242.267,425.319c-1.242-0.887-2.109-2.069-2.602-3.569c-0.352-1-0.539-2.344-0.539-4.012
			c0-1.605,0.188-2.921,0.539-3.948c0.461-1.477,1.336-2.633,2.594-3.504c1.257-0.859,2.749-1.281,4.468-1.281
			c1.742,0,3.25,0.441,4.547,1.309c1.289,0.871,2.148,1.957,2.57,3.273c0.125,0.359,0.195,0.711,0.25,1.07v0.07
			c0,0.219-0.125,0.352-0.383,0.406l-3.008,0.429h-0.07c-0.195,0-0.32-0.113-0.391-0.336c0-0.112-0.016-0.198-0.039-0.261
			c-0.047-0.176-0.086-0.332-0.133-0.465c-0.203-0.633-0.602-1.141-1.203-1.547c-0.602-0.402-1.313-0.605-2.141-0.605
			c-0.852,0-1.57,0.223-2.156,0.652c-0.602,0.438-0.992,1.035-1.194,1.789c-0.227,0.71-0.336,1.71-0.336,2.976
			c0,1.238,0.109,2.227,0.313,2.984c0.218,0.781,0.608,1.395,1.202,1.859c0.57,0.457,1.297,0.684,2.172,0.684
			c0.844,0,1.57-0.219,2.188-0.656c0.617-0.43,1.008-1.02,1.195-1.758c0.016-0.035,0.023-0.094,0.023-0.164
			c0.023-0.02,0.039-0.055,0.039-0.098c0.07-0.262,0.227-0.379,0.461-0.332l3.023,0.465c0.109,0.016,0.188,0.07,0.289,0.156
			c0.063,0.07,0.094,0.176,0.078,0.316c-0.07,0.352-0.133,0.613-0.18,0.766c-0.422,1.43-1.281,2.55-2.57,3.394
			c-1.297,0.836-2.805,1.254-4.547,1.254C245.008,426.636,243.523,426.198,242.267,425.319z"/>
		<path fill="#404041" d="M257.483,426.253c-0.086-0.082-0.109-0.168-0.109-0.281v-22.626c0-0.105,0.023-0.191,0.109-0.281
			c0.07-0.07,0.172-0.121,0.281-0.121h3.086c0.102,0,0.195,0.051,0.281,0.121c0.078,0.09,0.109,0.176,0.109,0.281v12.084
			c0,0.063,0.031,0.105,0.07,0.133c0.047,0.023,0.086,0,0.133-0.07l5.421-5.987c0.164-0.156,0.32-0.234,0.5-0.234h3.547
			c0.227,0,0.336,0.078,0.336,0.234c0,0.07-0.039,0.16-0.109,0.266l-4.234,5.098c-0.07,0.063-0.078,0.141-0.039,0.23l5.016,10.811
			c0.055,0.078,0.07,0.148,0.07,0.191c0,0.188-0.125,0.273-0.359,0.273h-3.25c-0.227,0-0.383-0.105-0.461-0.309l-3.664-8.495
			c-0.008-0.043-0.063-0.07-0.117-0.086c-0.047-0.008-0.094,0.008-0.109,0.051l-2.679,3.082c-0.039,0.086-0.07,0.168-0.07,0.227
			v5.128c0,0.113-0.031,0.199-0.109,0.281c-0.086,0.078-0.18,0.121-0.281,0.121h-3.086
			C257.655,426.374,257.554,426.331,257.483,426.253z"/>
		<path fill="#404041" d="M288.184,417.766l-0.031,1.043c0,0.273-0.133,0.402-0.414,0.402h-10.46c-0.117,0-0.18,0.055-0.18,0.168
			c0.07,0.738,0.18,1.238,0.313,1.5c0.531,1.609,1.844,2.426,3.913,2.449c1.516,0,2.711-0.629,3.617-1.867
			c0.086-0.141,0.195-0.211,0.32-0.211c0.086,0,0.18,0.027,0.25,0.105l2.07,1.703c0.188,0.156,0.227,0.34,0.102,0.543
			c-0.695,0.972-1.617,1.729-2.766,2.272c-1.148,0.535-2.43,0.797-3.836,0.797c-1.733,0-3.21-0.383-4.421-1.176
			c-1.227-0.781-2.109-1.866-2.664-3.272c-0.516-1.211-0.766-2.879-0.766-5.027c0-1.293,0.133-2.327,0.391-3.132
			c0.461-1.563,1.297-2.801,2.531-3.695c1.234-0.914,2.719-1.363,4.469-1.363c4.397,0,6.866,2.293,7.421,6.89
			C288.145,416.457,288.184,417.078,288.184,417.766z M278.56,412.974c-0.547,0.41-0.93,0.984-1.148,1.719
			c-0.133,0.387-0.219,0.87-0.273,1.476c-0.047,0.105,0,0.164,0.141,0.164h6.788c0.109,0,0.18-0.059,0.18-0.164
			c-0.063-0.563-0.125-0.984-0.211-1.272c-0.203-0.809-0.602-1.422-1.195-1.871c-0.594-0.445-1.328-0.676-2.218-0.676
			C279.794,412.349,279.114,412.56,278.56,412.974z"/>
		<path fill="#404041" d="M304.252,410.603c1.094,1.082,1.633,2.539,1.633,4.391v10.979c0,0.113-0.039,0.199-0.117,0.281
			c-0.07,0.078-0.172,0.121-0.281,0.121h-3.094c-0.094,0-0.195-0.043-0.281-0.121c-0.07-0.082-0.109-0.168-0.109-0.281v-10.175
			c0-1.022-0.281-1.858-0.875-2.499c-0.578-0.633-1.352-0.949-2.305-0.949c-0.96,0-1.726,0.309-2.327,0.941
			c-0.594,0.633-0.883,1.449-0.883,2.472v10.21c0,0.113-0.047,0.199-0.117,0.281c-0.078,0.078-0.172,0.121-0.289,0.121h-3.07
			c-0.117,0-0.211-0.043-0.289-0.121c-0.078-0.082-0.117-0.168-0.117-0.281v-16.299c0-0.113,0.039-0.203,0.117-0.281
			s0.172-0.121,0.289-0.121h3.07c0.117,0,0.211,0.043,0.289,0.121c0.07,0.078,0.117,0.168,0.117,0.281v1.07
			c0,0.07,0.023,0.113,0.063,0.133c0.047,0.027,0.086,0,0.102-0.063c0.914-1.203,2.297-1.809,4.14-1.809
			C301.729,409.005,303.182,409.532,304.252,410.603z"/>
		<path fill="#404041" d="M322.594,428.937c-0.078-0.078-0.117-0.184-0.117-0.289v-27.313c0-0.105,0.039-0.199,0.117-0.277
			c0.086-0.082,0.18-0.117,0.281-0.117h3.085c0.109,0,0.203,0.035,0.289,0.117c0.07,0.078,0.117,0.172,0.117,0.277v27.313
			c0,0.105-0.047,0.211-0.117,0.289c-0.086,0.07-0.18,0.105-0.289,0.105h-3.085C322.773,429.042,322.68,429.007,322.594,428.937z"/>
		<path fill="#404041" d="M358.98,402.943h3.077c0.117,0,0.211,0.051,0.273,0.121c0.094,0.09,0.125,0.176,0.125,0.281v22.626
			c0,0.113-0.031,0.199-0.125,0.281c-0.063,0.078-0.156,0.121-0.273,0.121h-3.077c-0.109,0-0.203-0.043-0.289-0.121
			c-0.078-0.082-0.109-0.168-0.109-0.281v-15.967c0-0.059-0.039-0.105-0.094-0.129c-0.047-0.027-0.094,0-0.109,0.07l-4.188,6.421
			c-0.109,0.188-0.273,0.266-0.469,0.266h-1.531c-0.203,0-0.352-0.078-0.477-0.266l-4.21-6.397c-0.016-0.07-0.063-0.078-0.117-0.07
			c-0.063,0.027-0.078,0.07-0.078,0.152v15.92c0,0.113-0.047,0.199-0.125,0.281c-0.07,0.078-0.172,0.121-0.281,0.121h-3.078
			c-0.117,0-0.211-0.043-0.289-0.121c-0.07-0.082-0.117-0.168-0.117-0.281v-22.626c0-0.105,0.047-0.191,0.117-0.281
			c0.078-0.07,0.172-0.121,0.289-0.121h3.078c0.195,0,0.352,0.086,0.469,0.27l5.452,8.269c0.039,0.043,0.086,0.07,0.133,0.07
			c0.039,0,0.078-0.027,0.109-0.07l5.445-8.269C358.621,403.029,358.777,402.943,358.98,402.943z"/>
		<path fill="#404041" d="M381.54,417.766l-0.039,1.043c0,0.273-0.141,0.402-0.406,0.402h-10.476c-0.102,0-0.164,0.055-0.164,0.168
			c0.07,0.738,0.164,1.238,0.305,1.5c0.539,1.609,1.844,2.426,3.906,2.449c1.516,0,2.727-0.629,3.624-1.867
			c0.086-0.141,0.203-0.211,0.336-0.211c0.086,0,0.156,0.027,0.234,0.105l2.063,1.703c0.211,0.156,0.234,0.34,0.109,0.543
			c-0.688,0.972-1.617,1.729-2.758,2.272c-1.147,0.535-2.429,0.797-3.835,0.797c-1.742,0-3.227-0.383-4.438-1.176
			c-1.218-0.781-2.101-1.866-2.663-3.272c-0.508-1.211-0.766-2.879-0.766-5.027c0-1.293,0.133-2.327,0.398-3.132
			c0.453-1.563,1.289-2.801,2.53-3.695c1.242-0.914,2.734-1.363,4.469-1.363c4.39,0,6.866,2.293,7.429,6.89
			C381.485,416.457,381.54,417.078,381.54,417.766z M371.908,412.974c-0.539,0.41-0.938,0.984-1.148,1.719
			c-0.141,0.387-0.227,0.87-0.266,1.476c-0.047,0.105,0,0.164,0.125,0.164h6.797c0.109,0,0.172-0.059,0.172-0.164
			c-0.047-0.563-0.125-0.984-0.195-1.272c-0.211-0.809-0.602-1.422-1.203-1.871c-0.586-0.445-1.32-0.676-2.219-0.676
			C373.135,412.349,372.463,412.56,371.908,412.974z"/>
		<path fill="#404041" d="M395.148,409.743c1.077,0.492,1.897,1.16,2.476,2.02s0.867,1.844,0.867,2.93v11.279
			c0,0.113-0.031,0.199-0.102,0.281c-0.094,0.078-0.188,0.121-0.297,0.121h-3.077c-0.102,0-0.211-0.043-0.281-0.121
			c-0.078-0.082-0.117-0.168-0.117-0.281v-1.074c0-0.066-0.031-0.102-0.055-0.121c-0.055,0-0.109,0.008-0.141,0.055
			c-1.102,1.199-2.688,1.805-4.758,1.805c-1.688,0-3.054-0.418-4.132-1.27s-1.625-2.108-1.625-3.784
			c0-1.738,0.617-3.098,1.828-4.063c1.21-0.965,2.929-1.457,5.14-1.457h3.57c0.117,0,0.172-0.055,0.172-0.168v-0.796
			c0-0.871-0.266-1.547-0.773-2.027c-0.508-0.484-1.281-0.723-2.305-0.723c-0.852,0-1.539,0.16-2.063,0.449
			c-0.516,0.309-0.859,0.727-0.977,1.266c-0.07,0.262-0.234,0.375-0.469,0.332l-3.249-0.402c-0.109-0.02-0.211-0.063-0.289-0.117
			c-0.078-0.059-0.102-0.129-0.086-0.219c0.18-1.359,0.922-2.473,2.195-3.344c1.288-0.867,2.905-1.309,4.835-1.309
			C392.844,409.005,394.086,409.251,395.148,409.743z M393.445,422.699c0.781-0.59,1.172-1.328,1.172-2.223v-1.57
			c0-0.105-0.055-0.168-0.172-0.168h-2.813c-1.18,0-2.109,0.23-2.797,0.668c-0.672,0.445-1.016,1.09-1.016,1.914
			c0,0.711,0.266,1.262,0.789,1.656c0.531,0.387,1.195,0.582,2.031,0.582C391.727,423.559,392.656,423.277,393.445,422.699z"/>
		<path fill="#404041" d="M411.061,412.298c-0.07,0.078-0.172,0.121-0.281,0.121h-3.422c-0.109,0-0.156,0.055-0.156,0.168v8.058
			c0,0.859,0.172,1.465,0.539,1.844c0.375,0.383,0.961,0.57,1.766,0.57h1.008c0.109,0,0.203,0.043,0.281,0.113
			c0.078,0.078,0.117,0.176,0.117,0.289v2.511c0,0.246-0.133,0.383-0.398,0.438l-1.742,0.027c-1.766,0-3.086-0.301-3.953-0.895
			c-0.866-0.609-1.304-1.749-1.343-3.425v-9.53c0-0.113-0.047-0.168-0.164-0.168h-1.906c-0.102,0-0.203-0.043-0.281-0.121
			s-0.109-0.168-0.109-0.281v-2.344c0-0.113,0.031-0.203,0.109-0.281s0.18-0.121,0.281-0.121h1.906c0.117,0,0.164-0.055,0.164-0.16
			v-3.921c0-0.113,0.039-0.195,0.125-0.289c0.078-0.07,0.18-0.117,0.281-0.117h2.913c0.109,0,0.203,0.047,0.289,0.117
			c0.07,0.094,0.117,0.176,0.117,0.289v3.921c0,0.105,0.047,0.16,0.156,0.16h3.422c0.109,0,0.211,0.043,0.281,0.121
			c0.078,0.078,0.125,0.168,0.125,0.281v2.344C411.186,412.13,411.139,412.22,411.061,412.298z"/>
	</g>
	<path fill-rule="evenodd" clip-rule="evenodd" fill="#FFFFFF" d="M255.288,226.346c4.477,0,8.101,0.844,8.101,1.878
		c0,1.027-3.624,1.879-8.101,1.879c-4.491,0-8.116-0.852-8.116-1.879C247.172,227.189,250.797,226.346,255.288,226.346
		L255.288,226.346z"/>
	<path fill-rule="evenodd" clip-rule="evenodd" fill="#FFFFFF" d="M226.939,226.346c4.477,0,8.108,0.844,8.108,1.878
		c0,1.027-3.632,1.879-8.108,1.879c-4.483,0-8.116-0.852-8.116-1.879C218.823,227.189,222.456,226.346,226.939,226.346
		L226.939,226.346z"/>
	<g>
		<line fill="#B12B2F" x1="61.536" y1="388.77" x2="438.487" y2="388.77"/>
		<rect x="61.536" y="387.805" fill="#650A0C" width="376.951" height="1.929"/>
	</g>
</g>
</svg>
