<?xml version="1.0" standalone="no"?><svg xmlns="http://www.w3.org/2000/svg" viewBox="0 0 1440 320"><path fill="#00cba9" fill-opacity="0.7" d="M0,32L34.3,37.3C68.6,43,137,53,206,74.7C274.3,96,343,128,411,154.7C480,181,549,203,617,197.3C685.7,192,754,160,823,138.7C891.4,117,960,107,1029,106.7C1097.1,107,1166,117,1234,101.3C1302.9,85,1371,43,1406,21.3L1440,0L1440,320L1405.7,320C1371.4,320,1303,320,1234,320C1165.7,320,1097,320,1029,320C960,320,891,320,823,320C754.3,320,686,320,617,320C548.6,320,480,320,411,320C342.9,320,274,320,206,320C137.1,320,69,320,34,320L0,320Z"></path></svg>